<svg height="216" preserveAspectRatio="xMidYMid" viewBox="0 0 216 216" width="216" xmlns="http://www.w3.org/2000/svg"><g fill-rule="evenodd"><path d="m107.773-.01c-59.519 0-107.769 48.249-107.769 107.766 0 59.518 48.25 107.766 107.769 107.766 59.52 0 107.771-48.248 107.771-107.766 0-59.517-48.251-107.766-107.771-107.766zm0 144.429c-20.249 0-36.663-16.414-36.663-36.663 0-20.248 16.414-36.662 36.663-36.662s36.664 16.414 36.664 36.662c0 20.249-16.415 36.663-36.664 36.663z" fill="#2476ff"/><path d="m98.293 72.376s-18.414-68.721-18.414-68.721c-37.095 9.915-66.294 39.115-76.21 76.207 0 0 68.723 18.414 68.723 18.414 3.375-12.617 13.284-22.526 25.901-25.9z" fill="#fff" opacity=".5"/><path d="m143.155 117.237c-3.375 12.616-13.285 22.525-25.901 25.9 0 0 18.414 68.721 18.414 68.721 37.094-9.915 66.295-39.115 76.21-76.208 0 0-68.723-18.413-68.723-18.413z" fill="#fff" opacity=".5"/><path d="m107.676 193.675c-44.84 0-81.319-36.479-81.319-81.316 0-1.984 1.608-3.592 3.592-3.592s3.593 1.608 3.593 3.592c0 40.876 33.257 74.131 74.134 74.131 1.983 0 3.592 1.608 3.592 3.592 0 1.985-1.609 3.593-3.592 3.593z" fill="#ededed"/></g></svg>