<svg enable-background="new 0 0 1024 1024" height="1024" image-rendering="optimizeSpeed" viewBox="0 0 1024 1024" width="1024" xmlns="http://www.w3.org/2000/svg"><path d="m969.6 351.25q-8.6-20.85-19.4-40.85c-4.05-7.55-8.35-15.05-12.9-22.4-19.55-31.7-43.4-61.65-71.55-89.8-92.15-92.15-203.45-138.25-333.8-138.25s-241.6 46.1-333.75 138.25-138.25 203.4-138.25 333.75 46.1 241.65 138.25 333.8 203.4 138.2 333.75 138.2 241.65-46.05 333.8-138.2c50.75-50.8 87.55-107.4 110.35-169.75 18.55-50.85 27.85-105.5 27.85-164.05 0-44.9-5.45-87.55-16.4-127.95-1.25-4.55-2.55-9.1-3.9-13.6-4.1-13.3-8.8-26.35-14.05-39.15z" fill-opacity=".098039"/><path d="m969.7 392c-1.1-4.35-2.35-9-3.65-13.6-1-3.4-2-6.85-3.15-10.5-1.6-5.15-3.4-10.5-5.3-15.85-6.45-18.25-14.15-36.05-23.15-53.65-3.8-7.4-7.95-14.95-12.3-22.4-20.3-34.5-45.8-67.2-76.35-97.75-72.6-72.6-157.15-116.65-253.65-132.05-16.25-2.6-32.8-4.4-50.05-5.35-9.7-.55-19.85-.85-30.1-.85-9.35 0-18.6.25-27.9.75-118.35 6.1-220.3 51.95-305.85 137.5q-138.25 138.25-138.25 333.75c0 130.35 46.1 241.65 138.25 333.8 56.7 56.65 120.55 95.9 191.1 117.55 36.75 11.25 74.8 17.85 114.75 19.95h.4c8.5.45 16.6.7 24.5.7h3c10.3 0 20.5-.3 30.1-.8 2.5-.15 4.75-.3 6.95-.45 20.2-1.45 39.9-4.05 58.7-7.7 7.95-1.55 15.8-3.3 23.4-5.15 80.8-20.3 152.15-61.6 214.65-124.1 48.6-48.6 84.4-102.5 107.35-161.8 18.45-47.65 28.65-98.8 30.55-153.5.2-6.05.3-12.25.3-18.5 0-.65 0-1.35 0-2 0-.35 0-.65 0-1-.2-40.65-4.95-79.5-14.3-117z" fill="#3db958"/><path d="m983.6 533-198.1-198.1-263.775-45.85-253.725 58.95 40 232 204 250.2 135.35 135.35c74.35-21.65 140.2-61.5 198.45-119.75 48.6-48.6 84.4-102.5 107.35-161.8q27.325-70.503 30.45-151z" fill-opacity=".2"/><path d="m785.5 334.9c-84.2-44.6-186.45-64.9-271.35-64.9s-187.2 20.3-271.4 64.9c0 96.3-.9 336.15 271.4 500 272.55-163.85 271.35-403.7 271.35-500zm-271.35 444.5q-133.8-88.75-187.7-220.85-34.55-84.65-36.7-194.55c66.55-29.6 148.3-47 224.4-47 76.05 0 157.8 17.4 224.35 47-1.85 99.4-20.95 280.6-224.35 415.4zm132.3-368.45h-.2l-144.05 152.35-54.1-66.55c-26.05-30.25-61.1-7.15-69.4-.95l124.95 149.3 172.65-236.8c-12.65-10.25-23.65-3.1-29.85 2.65z" fill="#fff"/></svg>